REM MD5 e2555bd41d613e3c681af6f696804462
FILE "Tactics Ogre - Let Us Cling Together (Japan).bin" BINARY
  TRACK 01 MODE2/2352
    INDEX 01 00:00:00
  TRACK 02 AUDIO
    INDEX 00 02:35:34
    INDEX 01 02:37:34
  TRACK 03 AUDIO
    INDEX 00 03:59:62
    INDEX 01 04:01:62
REM LEADOUT 07:04:42
